P2
21 21
255
128 255 255 255 255 255 255 255 255 255   0 255 255 255 255 255 255 255 255 255 255
255 128 255 255 192 255 255 255 255 255   0 255 255 255 255 255 255 255 255 255 255
255 255 128 255 192 255 255 255 255 255   0 255 255 255 255 255 255 255 255 255 255
255 255 255 128 255 192 255 255 255 255 255   0 255 255 255 255 255 255 255 255 255
255 255 255 255 128 192 255 255 255 255 255   0 255 255 255 255 255 255 255 255 255
 64  64  64 255 255 192 255 255 255 255 255   0 255 255 255 255 255 255 255 255 255
255 255 255  64  64  64 192  64 255 255 255   0 255 255 255 255 255 255 255 255 255
255 255 255 255 255 255 192 128  64  64  64   0  64 255 255 255 255 255 255 255 255
255 255 255 255 255 255 192 255 128 255 255 255   0  64  64  64  64  64 255 255 255
255 255 255 255 255 255 255 192 255 128 255 255   0 255 255 255 255 255  64  64  64
255 255 255 255 255 255 255 192 255 255 128 255   0 255 255 255 255 255 255 255 255
 32  32  32 255 255 255 255 192 255 255 255 128   0 255 255 255 255 255 255 255 255
255 255 255  32  32  32  32 192 255 255 255 255   0 255 255 255 255 255 255 255 255
255 255 255 255 255 255 255 255 192  32  32  32  32   0 255 255 255 255 255 255 255
255 255 255 255 255 255 255 255 192 255 255 255 255   0  32  32  32  32 255 255 255
255 255 255 255 255 255 255 255 192 255 255 255 255   0 255 128 255 255  32  32  32
255 255 255 255 255 255 255 255 255 192 255 255 255   0 255 255 128 255 255 255 255
255 255 255 255 255 255 255 255 255 192 255 255 255   0 255 255 255 128 255 255 255
255 255 255 255 255 255 255 255 255 192 255 255 255 255   0 255 255 255 128 255 255
255 255 255 255 255 255 255 255 255 255 192 255 255 255   0 255 255 255 255 128 255
255 255 255 255 255 255 255 255 255 255 192 255 255 255   0 255 255 255 255 255 128
