P2
21 21
255
255 255 255 255 255 255 255 255 255 255 255 255 255 255 255 255 255 255 255 255 255
255 255 255 255 255 255  99  99  99  99  99  99  99  99  99 255 255 255 255 255 255
255 255 255 255 255  99  99  99  99  99  99  99  99  99  99  99 255 255 255 255 255
255 255 255  99  99  99  99  99  99  99  99  99  99  99  99  99  99  99 255 255 255
255 255 255  99  99  99  99  99  99  99  99  99  99  99  99  99  99  99 255 255 255
255 255  99  99  99  99  99  99  99  99  99  99  99  99  99  99  99  99  99 255 255
255  99  99 199 199 199 199 199  99  99  99  99  99  99  99  99  99  99  99  99 255
255  99 199 199 199 199 199 199 199  99  99  99  99  99  99  99  99  99  99  99 255
255 199 199 199 199 199 199 199 199 199  99  99  99  99  99  99  99  99  99  99 255
255 199 199 199 199 199 199 199 199 199  99  99  99  99  99  99  99  99  99  99 255
255 199 199 199 199 199 199 199 199 199  99  99  99  99  99  99  99  99  99  99 255
255 199 199 199 199 199 199 199 199 199  99  99  99  99  99  99  99  99  99  99 255
255 199 199 199 199 199 199 199 199 199  99  99  99  99  99  99  99  99  99  99 255
255  99 199 199 199 199 199 199 199  99  99  99  99  99  99  99  99  99  99  99 255
255  99  99 199 199 199 199 199  99  99  99  99  99  99  99  99  99  99  99  99 255
255 255  99  99  99  99  99  99  99  99  99  99  99  99  99  99  99  99  99 255 255
255 255 255  99  99  99  99  99  99  99  99  99  99  99  99  99  99  99 255 255 255
255 255 255  99  99  99  99  99  99  99  99  99  99  99  99  99  99  99 255 255 255
255 255 255 255 255  99  99  99  99  99  99  99  99  99  99  99 255 255 255 255 255
255 255 255 255 255 255  99  99  99  99  99  99  99  99  99 255 255 255 255 255 255
255 255 255 255 255 255 255 255 255 255 255 255 255 255 255 255 255 255 255 255 255
